<svg width="26" height="26" viewBox="0 0 26 26" fill="none" xmlns="http://www.w3.org/2000/svg">
<g clip-path="url(#clip0_69_1794)">
<path d="M24.9166 11.9173H22.7499V9.75066C22.7499 9.46334 22.6358 9.18779 22.4326 8.98463C22.2294 8.78146 21.9539 8.66733 21.6666 8.66733C21.3793 8.66733 21.1037 8.78146 20.9005 8.98463C20.6974 9.18779 20.5832 9.46334 20.5832 9.75066V11.9173H18.4166C18.1293 11.9173 17.8537 12.0315 17.6506 12.2346C17.4474 12.4378 17.3333 12.7133 17.3333 13.0007C17.3333 13.288 17.4474 13.5635 17.6506 13.7667C17.8537 13.9698 18.1293 14.084 18.4166 14.084H20.5832V16.2506C20.5832 16.538 20.6974 16.8135 20.9005 17.0167C21.1037 17.2198 21.3793 17.334 21.6666 17.334C21.9539 17.334 22.2294 17.2198 22.4326 17.0167C22.6358 16.8135 22.7499 16.538 22.7499 16.2506V14.084H24.9166C25.2039 14.084 25.4794 13.9698 25.6826 13.7667C25.8858 13.5635 25.9999 13.288 25.9999 13.0007C25.9999 12.7133 25.8858 12.4378 25.6826 12.2346C25.4794 12.0315 25.2039 11.9173 24.9166 11.9173Z" fill="#374957"/>
<path d="M9.75 12.9999C11.0356 12.9999 12.2923 12.6187 13.3612 11.9045C14.4301 11.1903 15.2632 10.1751 15.7552 8.98738C16.2472 7.79966 16.3759 6.49273 16.1251 5.23186C15.8743 3.97098 15.2552 2.81279 14.3462 1.90375C13.4372 0.994707 12.279 0.375642 11.0181 0.124838C9.75721 -0.125966 8.45028 0.00275532 7.26256 0.494725C6.07484 0.986695 5.05968 1.81982 4.34545 2.88874C3.63122 3.95765 3.25 5.21436 3.25 6.49994C3.25172 8.22332 3.93709 9.87562 5.15571 11.0942C6.37432 12.3128 8.02662 12.9982 9.75 12.9999ZM9.75 2.16661C10.6071 2.16661 11.4449 2.42075 12.1575 2.89691C12.8701 3.37306 13.4255 4.04983 13.7535 4.84165C14.0815 5.63346 14.1673 6.50475 14.0001 7.34533C13.8329 8.18592 13.4202 8.95804 12.8141 9.56407C12.2081 10.1701 11.436 10.5828 10.5954 10.75C9.75481 10.9172 8.88352 10.8314 8.09171 10.5034C7.29989 10.1754 6.62312 9.62003 6.14697 8.90741C5.67081 8.1948 5.41667 7.35699 5.41667 6.49994C5.41667 5.35067 5.87321 4.24847 6.68587 3.43581C7.49853 2.62315 8.60073 2.16661 9.75 2.16661Z" fill="#374957"/>
<path d="M9.75 15.1673C7.16502 15.1702 4.68673 16.1983 2.85888 18.0262C1.03102 19.8541 0.00286742 22.3323 0 24.9173C0 25.2046 0.114137 25.4802 0.317301 25.6834C0.520465 25.8865 0.796016 26.0007 1.08333 26.0007C1.37065 26.0007 1.6462 25.8865 1.84937 25.6834C2.05253 25.4802 2.16667 25.2046 2.16667 24.9173C2.16667 22.9061 2.96562 20.9773 4.38777 19.5551C5.80992 18.133 7.73878 17.334 9.75 17.334C11.7612 17.334 13.6901 18.133 15.1122 19.5551C16.5344 20.9773 17.3333 22.9061 17.3333 24.9173C17.3333 25.2046 17.4475 25.4802 17.6506 25.6834C17.8538 25.8865 18.1293 26.0007 18.4167 26.0007C18.704 26.0007 18.9795 25.8865 19.1827 25.6834C19.3859 25.4802 19.5 25.2046 19.5 24.9173C19.4971 22.3323 18.469 19.8541 16.6411 18.0262C14.8133 16.1983 12.335 15.1702 9.75 15.1673Z" fill="#374957"/>
</g>
<defs>
<clipPath id="clip0_69_1794">
<rect width="26" height="26" fill="white"/>
</clipPath>
</defs>
</svg>
