<svg width="22" height="26" viewBox="0 0 22 26" fill="none" xmlns="http://www.w3.org/2000/svg">
<path d="M15.3337 17.3333C15.3337 17.6206 15.2195 17.8962 15.0164 18.0994C14.8132 18.3025 14.5376 18.4167 14.2503 18.4167H12.0837V20.5833C12.0837 20.8706 11.9695 21.1462 11.7664 21.3494C11.5632 21.5525 11.2876 21.6667 11.0003 21.6667C10.713 21.6667 10.4375 21.5525 10.2343 21.3494C10.0311 21.1462 9.91699 20.8706 9.91699 20.5833V18.4167H7.75032C7.46301 18.4167 7.18746 18.3025 6.98429 18.0994C6.78113 17.8962 6.66699 17.6206 6.66699 17.3333C6.66699 17.046 6.78113 16.7705 6.98429 16.5673C7.18746 16.3641 7.46301 16.25 7.75032 16.25H9.91699V14.0833C9.91699 13.796 10.0311 13.5205 10.2343 13.3173C10.4375 13.1141 10.713 13 11.0003 13C11.2876 13 11.5632 13.1141 11.7664 13.3173C11.9695 13.5205 12.0837 13.796 12.0837 14.0833V16.25H14.2503C14.5376 16.25 14.8132 16.3641 15.0164 16.5673C15.2195 16.7705 15.3337 17.046 15.3337 17.3333ZM21.8337 11.3587V20.5833C21.8319 22.0194 21.2607 23.3961 20.2453 24.4116C19.2298 25.427 17.8531 25.9983 16.417 26H5.58366C4.1476 25.9983 2.77085 25.427 1.7554 24.4116C0.739948 23.3961 0.168712 22.0194 0.166992 20.5833V5.41666C0.168712 3.9806 0.739948 2.60385 1.7554 1.5884C2.77085 0.57295 4.1476 0.00171463 5.58366 -5.54818e-06H10.4749C11.4712 -0.00256972 12.458 0.192381 13.3785 0.573575C14.2989 0.954769 15.1347 1.51464 15.8374 2.22083L19.6117 5.99733C20.3183 6.69959 20.8786 7.53507 21.26 8.45538C21.6414 9.37569 21.8364 10.3625 21.8337 11.3587V11.3587ZM14.3056 3.75266C13.9646 3.42242 13.5818 3.13833 13.167 2.90766V7.58333C13.167 7.87065 13.2811 8.1462 13.4843 8.34936C13.6875 8.55252 13.963 8.66666 14.2503 8.66666H18.926C18.6952 8.25195 18.4107 7.86949 18.0799 7.52916L14.3056 3.75266ZM19.667 11.3587C19.667 11.18 19.6323 11.0088 19.6161 10.8333H14.2503C13.3884 10.8333 12.5617 10.4909 11.9522 9.88143C11.3427 9.27193 11.0003 8.44528 11.0003 7.58333V2.21758C10.8248 2.20133 10.6526 2.16666 10.4749 2.16666H5.58366C4.7217 2.16666 3.89505 2.50907 3.28556 3.11856C2.67607 3.72806 2.33366 4.55471 2.33366 5.41666V20.5833C2.33366 21.4453 2.67607 22.2719 3.28556 22.8814C3.89505 23.4909 4.7217 23.8333 5.58366 23.8333H16.417C17.2789 23.8333 18.1056 23.4909 18.7151 22.8814C19.3246 22.2719 19.667 21.4453 19.667 20.5833V11.3587Z" fill="#374957"/>
</svg>
