<svg width="26" height="24" viewBox="0 0 26 24" fill="none" xmlns="http://www.w3.org/2000/svg">
<path d="M20.5833 2.25032H13.5113C13.3438 2.25142 13.1782 2.21437 13.0271 2.14198L9.60808 0.425982C9.15676 0.201239 8.65952 0.0840672 8.15533 0.0836487H5.41667C3.98061 0.0853689 2.60385 0.656604 1.5884 1.67205C0.572955 2.6875 0.00172018 4.06425 0 5.50032L0 18.5003C0.00172018 19.9364 0.572955 21.3131 1.5884 22.3286C2.60385 23.344 3.98061 23.9153 5.41667 23.917H20.5833C22.0194 23.9153 23.3961 23.344 24.4116 22.3286C25.427 21.3131 25.9983 19.9364 26 18.5003V7.66698C25.9983 6.23092 25.427 4.85417 24.4116 3.83872C23.3961 2.82327 22.0194 2.25204 20.5833 2.25032V2.25032ZM5.41667 2.25032H8.15533C8.32288 2.24921 8.48848 2.28626 8.63958 2.35865L12.0586 4.06923C12.5095 4.29585 13.0067 4.41488 13.5113 4.41698H20.5833C21.2312 4.41804 21.864 4.61271 22.4004 4.976C22.9369 5.33928 23.3525 5.85461 23.5939 6.45582L2.16667 6.57715V5.50032C2.16667 4.63836 2.50908 3.81171 3.11857 3.20222C3.72806 2.59273 4.55471 2.25032 5.41667 2.25032V2.25032ZM20.5833 21.7503H5.41667C4.55471 21.7503 3.72806 21.4079 3.11857 20.7984C2.50908 20.1889 2.16667 19.3623 2.16667 18.5003V8.74382L23.8333 8.6214V18.5003C23.8333 19.3623 23.4909 20.1889 22.8814 20.7984C22.2719 21.4079 21.4453 21.7503 20.5833 21.7503Z" fill="#374957"/>
</svg>
